<?xml version="1.0" encoding="UTF-8" standalone="no"?>
<!DOCTYPE svg PUBLIC "-//W3C//DTD SVG 1.1//EN" "http://www.w3.org/Graphics/SVG/1.1/DTD/svg11.dtd">
<svg version="1.1" xmlns="http://www.w3.org/2000/svg" xmlns:xlink="http://www.w3.org/1999/xlink" preserveAspectRatio="xMidYMid meet" viewBox="0 0 640 640" width="640" height="640"><defs><path d="M249.28 44.01C212.74 28.62 176.54 11.58 137.32 3.43C112.1 -1.81 83.24 -2.55 62.92 12.1C43.36 26.24 37.04 50.56 33.65 73.16C31.09 90.16 29.58 108.05 36.59 123.96C41.46 135 50.09 144.29 56.06 154.88C76.84 191.7 62.15 237.11 39.64 273.06C29.08 289.93 16.82 306.03 8.67 323.97C0.52 341.91 -3.25 362.5 3.88 380.81C10.95 398.98 27.79 412.6 46.04 422.19C83.1 441.67 126.75 447.24 169.34 450.4C263.61 457.39 358.37 454.36 452.88 451.33C487.86 450.21 522.99 449.07 557.39 443.21C576.5 439.95 596.23 434.79 610.1 422.32C627.71 406.48 632.08 379.67 620.27 359.82C600.48 326.51 545.77 318.24 531.92 282.51C524.31 262.83 532.12 240.92 543.19 222.67C566.94 183.54 606.73 149.2 608.82 104.46C610.26 73.74 591.13 42.96 561.55 28.42C530.55 13.19 487.56 15.1 464.7 40.33C441.14 66.3 399.75 76.29 364.27 74.96C324.09 73.45 285.82 59.39 249.28 44.01Z" id="bo4texEny"></path><path d="M489.01 525.53C489.01 540.82 404.51 553.2 300.29 553.2C196.06 553.2 111.57 540.82 111.57 525.53C111.57 510.25 196.06 497.86 300.29 497.86C404.51 497.86 489.01 510.25 489.01 525.53Z" id="b4Ay4wWBKJ"></path><path d="M220.07 157.69C220.07 157.69 237.28 133.38 246.67 135.27C246.67 135.27 236.24 156.94 220.07 160.16C220.07 159.67 220.07 158.18 220.07 157.69Z" id="beuZz8AbF"></path><path d="M228.75 127.73C228.75 127.73 243.96 109.09 252.18 109.14C252.18 109.14 240.17 134.04 228.13 133.81C228.25 132.59 228.62 128.95 228.75 127.73Z" id="e30NzZadqh"></path><path d="M227.05 133.69C239.37 90.14 242.45 62.36 235.71 55.41C235.78 55.32 236.35 54.67 236.43 54.59C243.57 61.93 240.67 89.38 228.05 134.02C227.85 133.96 227.15 133.73 227.05 133.69Z" id="aVpfsXU4K"></path><path d="M192.64 235.42C193.94 231.43 195.35 227.38 196.83 223.38C209.69 188.63 220.64 156.31 227.67 131.49C227.8 131.43 228.82 130.89 228.95 130.82C221.92 155.68 211.16 189.25 198.28 224.04C196.81 227.99 195.41 232.03 194.11 235.98C193.82 235.87 192.79 235.47 192.64 235.42Z" id="d1M6QVexzO"></path><path d="M225.21 475.76C225.01 475.52 205.03 451.14 191.11 409.52C182.95 385.16 178.4 359.55 177.64 333.64C176.68 301.25 182.95 265.09 193.69 232.25C193.81 232.39 194.74 233.58 194.86 233.73C170.75 307.45 180.33 370.63 193.04 408.68C206.82 449.93 226.56 474.04 226.76 474.28C226.45 474.57 225.52 475.46 225.21 475.76Z" id="a5q0si9M48"></path><path d="M403.27 195.02C404.22 195.02 404.7 195.54 404.7 196.56C404.7 224.19 404.7 239.55 404.7 242.62C404.7 243.64 404.22 244.16 403.27 244.16C401.68 244.16 400.79 244.16 400.62 244.16C399.67 244.16 399.19 243.64 399.19 242.62C399.19 214.98 399.19 199.63 399.19 196.56C399.19 195.54 399.67 195.02 400.62 195.02C402.21 195.02 403.1 195.02 403.27 195.02Z" id="ar50Nv8W"></path><path d="M218.06 156.52C219.01 156.52 219.48 157.04 219.48 158.07C219.48 165.92 219.48 170.29 219.48 171.16C219.48 172.19 219.01 172.7 218.06 172.7C217.92 172.7 217.84 172.7 217.82 172.7C216.87 172.7 216.4 172.19 216.4 171.16C216.4 163.3 216.4 158.94 216.4 158.07C216.4 157.04 216.87 156.52 217.82 156.52C217.97 156.52 218.05 156.52 218.06 156.52Z" id="nlMDrL6wX"></path><path d="M218.34 186.15C219.29 186.15 219.76 186.66 219.76 187.69C219.76 202.73 219.76 211.09 219.76 212.76C219.76 213.79 219.29 214.3 218.34 214.3C217.96 214.3 217.75 214.3 217.71 214.3C216.76 214.3 216.29 213.79 216.29 212.76C216.29 197.72 216.29 189.36 216.29 187.69C216.29 186.66 216.76 186.15 217.71 186.15C218.09 186.15 218.3 186.15 218.34 186.15Z" id="e9LC4I1QT"></path><path d="M218.23 224.15C219.18 224.15 219.65 224.67 219.65 225.69C219.65 240.88 219.65 249.32 219.65 251.01C219.65 252.03 219.18 252.55 218.23 252.55C217.95 252.55 217.8 252.55 217.76 252.55C216.82 252.55 216.34 252.03 216.34 251.01C216.34 235.82 216.34 227.38 216.34 225.69C216.34 224.67 216.82 224.15 217.76 224.15C218.04 224.15 218.2 224.15 218.23 224.15Z" id="e2Hy36nrqq"></path><path d="M377.96 103.07C394.09 103.07 402.16 111.81 402.16 129.31C402.16 341.03 402.16 458.66 402.16 482.19C402.16 499.68 394.09 508.42 377.96 508.42C296.59 508.42 251.39 508.42 242.35 508.42C226.21 508.42 218.14 499.68 218.14 482.19C218.14 270.46 218.14 152.83 218.14 129.31C218.14 111.81 226.21 103.07 242.35 103.07C323.71 103.07 368.92 103.07 377.96 103.07Z" id="aCRRpThJN"></path><path d="M355.1 113.6C355.1 115.25 355.1 116.17 355.1 116.35C355.1 123.55 349.71 129.39 343.06 129.39C343.06 129.39 343.06 129.39 343.06 129.39C336.34 129.39 282.64 129.39 275.93 129.39C269.28 129.4 263.89 123.56 263.89 116.36C263.89 116.36 263.89 116.35 263.89 116.35C263.89 116.17 263.89 115.25 263.89 113.6C252.03 113.6 245.44 113.6 244.13 113.6C236.05 113.6 229.51 120.69 229.51 129.44C229.51 129.44 229.51 129.44 229.51 129.44C229.51 164.7 229.51 446.77 229.51 482.02C229.51 490.77 236.05 497.86 244.13 497.86C257.33 497.86 363 497.86 376.2 497.86C384.28 497.86 390.82 490.77 390.82 482.02C390.82 446.77 390.82 164.72 390.82 129.47C390.83 120.72 384.3 113.61 376.23 113.6C376.22 113.6 376.21 113.6 376.2 113.6C376.2 113.6 369.17 113.6 355.1 113.6Z" id="aJoW8a0KB"></path><path d="M315.7 115.17C317.3 115.17 318.1 116.04 318.1 117.78C318.1 118.04 318.1 118.19 318.1 118.22C318.1 119.96 317.3 120.83 315.7 120.83C303.16 120.83 296.2 120.83 294.81 120.83C293.2 120.83 292.4 119.96 292.4 118.22C292.4 117.96 292.4 117.81 292.4 117.78C292.4 116.04 293.2 115.17 294.81 115.17C307.34 115.17 314.3 115.17 315.7 115.17Z" id="aTumZI2Tr"></path><path d="M324.95 114.79C323.31 114.79 321.99 116.23 321.99 118C321.99 119.77 323.31 121.21 324.95 121.21C326.58 121.21 327.91 119.77 327.91 118C327.91 116.23 326.58 114.79 324.95 114.79Z" id="hQ8QT8X8S"></path><path d="M374.4 152.2C374.4 152.2 374.4 152.2 374.4 152.2C374.4 329.54 374.4 428.06 374.4 447.77C374.4 447.77 374.4 447.77 374.4 447.77C297.31 447.77 254.48 447.77 245.91 447.77C245.91 447.77 245.91 447.77 245.91 447.77C245.91 270.43 245.91 171.9 245.91 152.2C245.91 152.2 245.91 152.2 245.91 152.2C323 152.2 365.83 152.2 374.4 152.2Z" id="d2QdOypBI"></path><path d="M366.08 519.11C365.32 517.09 364.02 516.75 363.04 516.8C363.04 516.75 363.06 516.53 363.09 516.13L363.33 512.94C363.36 512.54 363.38 512.32 363.38 512.27C365.72 511.74 367.73 511.32 367.73 511.32C367.58 503.16 366.42 437.85 366.27 429.68C366.27 429.68 365.65 428.82 364.15 423.63C363.4 421.04 359.8 417.86 356.44 415.32C355.91 414.92 355.39 414.54 354.88 414.18C356.11 413.07 357.4 412.04 358.74 411.1C360.65 409.89 361.29 403.02 361.29 403.02C361.25 403.09 361 403.63 360.97 403.7C361.29 403.02 360.97 385.48 360.97 385.48C360.86 383.66 359.96 369.09 359.85 367.27C359.85 367.27 359.06 345.63 352.85 339.95C346.64 334.28 338.8 332.29 338.8 332.29C338.51 332.21 337.06 331.81 334.45 331.08L334.45 331.08C329.65 329.75 326.98 329 326.44 328.86C326.22 328.46 326 328.04 325.82 327.6C325.74 327.44 325.67 327.26 325.59 327.09C330.56 323.28 333.51 317.09 333.51 310.5C333.51 309.41 333.43 308.32 333.27 307.24C333.27 307.04 333.2 306.83 333.16 306.63C333.82 306.14 334.44 305.6 335.02 305.01C335.97 304.19 336.75 303.16 337.3 301.99C337.3 301.99 337.3 301.99 337.3 301.99C337.38 301.76 337.45 301.52 337.51 301.28C337.51 301.21 337.51 301.15 337.54 301.07C337.58 301 337.6 300.72 337.62 300.53C337.62 300.47 337.62 300.4 337.62 300.33C337.62 300.14 337.62 299.93 337.62 299.74C337.62 299.69 337.62 299.65 337.62 299.59C337.62 299.37 337.59 299.15 337.56 298.92C337.56 298.91 337.56 298.89 337.56 298.88C337.56 298.88 337.56 298.88 337.56 298.88C337.44 298.1 337.26 297.33 337 296.59C336.38 294.85 335.57 293.23 335.28 291.38C334.92 289.19 335.33 286.8 334.37 284.83C333.56 283.33 332.18 282.3 330.59 282.02C329.02 281.75 327.4 281.95 325.92 282.59C325.2 282.97 324.42 283.19 323.62 283.27C323.04 283.23 322.47 283.08 321.94 282.82C320.09 282.04 318.34 281.02 316.72 279.79C315.55 278.79 314.31 277.91 313 277.15C311.66 276.4 310.09 276.33 308.7 276.96C306.4 278.23 305.97 281.75 303.83 283.31C302.36 284.38 300.44 284.28 298.67 284.34C296.89 284.41 294.88 284.89 294 286.56C293.38 287.71 293.53 289.09 293.65 290.45C293.65 290.49 293.68 290.86 293.69 290.9C293.69 291.07 293.69 291.23 293.73 291.4C293.82 293.13 293.58 294.86 293.02 296.48C292.17 298.95 290.54 301.37 290.6 303.88C290.6 303.88 290.6 303.88 290.6 303.88C290.6 304.28 290.65 304.68 290.74 305.07C290.79 305.26 290.85 305.45 290.91 305.64C290.91 305.64 290.91 305.64 290.91 305.64C291.25 306.47 291.64 307.28 292.06 308.07C292.07 308.08 292.11 308.17 292.12 308.18C292.16 308.27 292.2 308.37 292.24 308.46C292.28 308.55 292.35 308.72 292.4 308.84C292.44 308.97 292.45 308.97 292.46 309.03C292.48 309.09 292.55 309.28 292.58 309.41C292.68 309.79 292.72 310.18 292.71 310.58C292.63 311.09 292.59 311.61 292.59 312.12C292.59 312.65 292.94 313.11 293.42 313.22C293.68 313.21 293.93 313.13 294.14 312.98C294.7 312.63 295.23 312.24 295.72 311.8C295.72 312.01 295.72 312.23 295.76 312.47C296.19 317.29 298.19 321.78 301.41 325.14C301.41 325.35 301.41 325.57 301.36 325.81C301.32 326.06 301.33 326.3 301.32 326.55C301.32 326.55 301.32 326.55 301.32 326.55C297.15 327.97 294.83 328.76 294.36 328.92C294.36 328.92 294.4 329.05 294.48 329.28C294.43 329.3 294.18 329.41 293.74 329.6C293.74 329.6 293.74 329.6 293.74 329.6C290.14 331.18 286.12 333.14 283.87 334.93C282.88 335.71 281.97 336.35 281.16 336.88C278.21 338.84 275.94 341.81 274.73 345.32C274.72 345.35 274.64 345.55 274.63 345.58C274.01 347.12 270.97 357.6 270.97 357.6C270.97 357.6 268.74 363.44 268.42 367.23C268.42 367.23 264.76 379.76 265.71 388.01C265.71 388.01 262.84 399.87 263.96 401.75C263.96 401.75 262.82 406.85 267.84 411.99C267.47 412.23 267.07 412.49 266.66 412.78C262.77 415.43 257.16 419.73 256.21 423.05C254.72 428.21 254.08 429.11 254.08 429.11C253.93 437.26 252.73 502.46 252.58 510.62C252.58 510.62 254.59 511.03 256.93 511.56C256.93 511.6 256.95 511.83 256.98 512.23L257.22 515.41C257.25 515.81 257.27 516.03 257.28 516.08C256.29 516.03 255 516.4 254.23 518.39C252.87 521.91 249.89 529.55 249.89 529.55C249.89 529.55 243.2 536.28 247.25 542.52C247.43 542.81 247.64 543.07 247.88 543.31C250.79 546.17 257 544.33 261.41 542.46C263.65 541.43 265.59 539.74 267 537.58C267.36 537.07 267.9 536.74 268.49 536.68C269.5 536.51 270.45 536.06 271.26 535.37C272.25 534.59 272.82 533.33 272.79 532.01C272.79 531.97 272.79 531.94 272.79 531.91C272.75 530.95 272.44 523.29 272.4 522.33C272.4 522.33 271.92 515.64 270.4 516.07C270.37 516.08 270.24 516.11 270.01 516.17L269.9 515.5L269.9 515.5L269.7 514.2L269.59 513.53C270.1 513.53 270.38 513.53 270.44 513.53C270.44 513.53 270.65 505.97 273.2 500.02C275.75 494.07 277.43 446.02 277.43 446.02C277.43 446.02 309.01 446.57 310.07 443.37C310.07 443.37 310.07 443.37 310.07 443.37C310.69 443.37 311.36 443.37 312.01 443.32C313.07 446.53 342.88 446.68 342.88 446.68C342.88 446.68 344.57 494.79 347.12 500.74C347.66 502.02 348.1 503.34 348.45 504.69C348.45 504.69 348.45 504.69 348.45 504.69C349.25 507.81 349.74 511.01 349.89 514.25C349.94 514.25 350.22 514.25 350.73 514.25L350.62 514.92L350.41 516.21L350.31 516.89C350.07 516.83 349.93 516.79 349.91 516.79C348.4 516.36 347.92 523.05 347.92 523.05C347.88 524.01 347.56 531.72 347.52 532.69C347.45 534.01 348.01 535.27 348.99 536.05C349.82 536.75 350.79 537.21 351.82 537.4C352.41 537.45 352.95 537.77 353.31 538.29C354.72 540.44 356.65 542.13 358.9 543.17C363.66 545.19 370.52 547.16 373.06 543.24C377.15 536.98 370.46 530.28 370.46 530.28C369.59 528.04 367.43 522.63 366.08 519.11ZM290.19 410.27L290.19 410.27L290.26 410.27L290.19 410.27ZM342.3 387.74C342.3 387.74 343.02 400.12 343.02 400.12C342.46 400.16 341.9 400.25 341.36 400.41C340.26 393.32 339.25 385.45 340.07 382.76C340.52 383.76 340.87 386.03 342.3 387.74Z" id="a14A5CxdPA"></path><linearGradient id="gradientcUHQQMTRL" gradientUnits="userSpaceOnUse" x1="245.91" y1="411" x2="374.4" y2="411"><stop style="stop-color: #808080;stop-opacity: 0.25" offset="0%"></stop><stop style="stop-color: #808080;stop-opacity: 0.12" offset="54%"></stop><stop style="stop-color: #808080;stop-opacity: 0.1" offset="100%"></stop></linearGradient><path d="M258.91 518.43L258.57 513.9L258.32 510.78L257.98 506.23L269.78 506.9L270.72 512.75L270.92 514.02L270.92 514.02L271.4 517.08L271.4 517.08L258.91 518.43Z" id="bgeMHSEk4"></path><path d="M361.98 511.46L361.75 514.57L361.39 519.1L348.9 517.76L349.4 514.69L349.59 513.43L350.53 507.58L362.32 506.91L362.32 506.91L361.98 511.46Z" id="dav1LrXFW"></path><path d="M349.09 441.37C326.82 442.51 314.44 443.14 311.97 443.26C310.28 443.35 308.59 443.35 306.9 443.26L271.43 441.38L271.43 410.92L349.09 410.92L349.09 441.37Z" id="af1rpgZft"></path><path d="M349.09 441.37C326.82 442.51 314.44 443.14 311.97 443.26C310.28 443.35 308.59 443.35 306.9 443.26L271.43 441.38L271.43 410.92L349.09 410.92L349.09 441.37Z" id="b1M25pYEcq"></path><path d="M284.52 337.07C283.56 337.84 282.66 338.47 281.88 338.99C279 340.91 276.8 343.82 275.63 347.25C275.6 347.35 275.57 347.43 275.53 347.5C274.91 349.02 271.96 359.28 271.96 359.28C271.96 359.28 269.79 365 269.48 368.7C269.17 372.4 287.18 382.33 287.18 382.33C287.18 382.33 278.48 402.85 282.36 408.06C286.24 413.28 342.9 415.8 341.65 408.06C340.41 400.33 338.24 387.54 339.33 384.01C341.25 382.49 356.65 370.38 358.57 368.87C358.57 368.87 357.8 347.67 351.74 342.12C351.74 342.12 338.08 334.55 338.08 334.55C336.88 334.21 327.24 331.52 326.03 331.18C326.03 331.18 321.79 342.62 317.13 344.14C312.47 345.65 302.27 338.66 301.55 328.87C301.55 328.87 289.18 333.37 284.52 337.07Z" id="ad7blKO1Z"></path><path d="M310.91 348.14C310.91 348.14 308.43 356.17 310.91 358.86C310.9 358.9 310.87 359.08 310.82 359.41L310.38 361.8L304.63 413.62L309.36 422.46L317.97 410.76L317.27 362.31L316.96 359.53L316.89 358.85C317.77 358.85 318.26 358.85 318.36 358.85C318.36 358.85 322.27 351.54 318.92 348.14C317.32 348.14 313.67 352.89 310.91 348.14Z" id="b6027vLics"></path><path d="M312.15 348.14C312.15 348.14 309.67 356.17 312.15 358.86C312.15 358.9 312.11 359.08 312.06 359.41L311.62 361.8L305.87 413.62L310.6 422.46L319.21 410.76L318.52 362.31L318.21 359.53L318.13 358.85C319.01 358.85 319.5 358.85 319.6 358.85C319.6 358.85 323.51 351.54 320.16 348.14C318.56 348.14 314.91 352.89 312.15 348.14Z" id="b18mzLkdFC"></path><path d="M309.98 421.78L305.24 412.98L310.99 361.14L311.43 358.74L311.53 358.19L312.31 356.01L317.51 358.19L317.58 358.86L317.89 361.64L318.59 410.09L318.59 410.09L309.98 421.78Z" id="baa1pHVGl"></path><path d="M270.72 512.74C268.04 512.72 265.37 512.43 262.74 511.86C261.44 511.51 259.81 511.12 258.33 510.78C258.31 510.47 258.19 508.95 257.98 506.22L269.78 506.89C270.28 510.01 270.59 511.96 270.72 512.74Z" id="b3RSaptWuB"></path><path d="M278.26 445.92C278.26 445.92 276.61 493.02 274.12 498.85C271.64 504.69 271.43 512.08 271.43 512.08C271.43 512.08 266.05 512.08 262.74 511.19C259.42 510.29 254.05 509.17 254.05 509.17C254.19 501.18 255.35 437.25 255.5 429.26C255.5 429.26 256.12 428.42 257.57 423.37C258.5 420.12 263.96 415.9 267.74 413.27C269.85 411.83 271.43 410.89 271.43 410.89C272.65 410.94 278.78 411.21 289.8 411.7C296.6 412 300.38 412.16 301.13 412.2C301.13 412.2 311.11 440.18 310.07 443.32C309.04 446.47 284.62 445.4 278.26 445.92Z" id="h2qHS6fWaB"></path><path d="M271.41 517.08L258.91 518.42C258.7 515.7 258.58 514.19 258.56 513.89C259.03 513.91 259.49 514.02 259.92 514.22C262.2 515.99 268.71 514.58 270.92 514.01C270.92 514.01 270.92 514.01 270.92 514.01L271.41 517.08Z" id="f1qGZITTn6"></path><path d="M272.27 533.45C271.48 534.12 270.55 534.56 269.57 534.74C268.99 534.79 268.47 535.11 268.12 535.61C266.74 537.72 264.85 539.38 262.66 540.4C258.36 542.23 252.3 544.03 249.46 541.22C249.23 540.99 249.02 540.74 248.84 540.46C244.89 534.32 251.41 527.75 251.41 527.75C251.41 527.75 254.35 520.27 255.67 516.83C256.23 515.07 258 514.14 259.62 514.75C259.73 514.79 259.84 514.84 259.94 514.89C262.42 516.83 269.95 514.97 271.42 514.56C272.9 514.15 273.37 520.69 273.37 520.69C273.41 521.63 273.73 529.13 273.76 530.06C273.76 530.1 273.76 530.13 273.76 530.16C273.79 531.46 273.24 532.69 272.27 533.45Z" id="f1Aw8jyvk6"></path><path d="M362.33 506.9C362.12 509.63 362 511.15 361.98 511.45C360.5 511.79 358.88 512.18 357.57 512.53C354.94 513.1 352.27 513.4 349.6 513.42C349.66 513.03 349.97 511.08 350.53 507.57L362.33 506.9Z" id="d2Fb3RgdOD"></path><path d="M366.27 509.84C366.27 509.84 360.89 510.97 357.58 511.86C357.58 511.86 348.89 512.76 348.89 512.76C348.89 512.76 348.68 505.35 346.2 499.53C343.72 493.7 342.06 446.59 342.06 446.59C342.06 446.59 313.01 446.41 311.98 443.26C310.94 440.12 324.64 412.98 324.64 412.98C325.19 412.95 327.98 412.79 332.99 412.51C342.53 411.96 347.83 411.66 348.89 411.6C348.89 411.6 351.99 413.43 355.25 415.9C355.25 415.9 362.03 421.5 362.76 424.04C364.2 429.09 364.82 429.93 364.82 429.93C365.11 445.92 365.98 493.86 366.27 509.84Z" id="ejZIdAjdO"></path><path d="M361.4 519.09L348.9 517.75C349.2 515.91 349.36 514.89 349.4 514.69C351.6 515.26 358.09 516.67 360.39 514.89C360.82 514.69 361.28 514.58 361.75 514.57C361.7 515.17 361.58 516.68 361.4 519.09Z" id="e2GvFGzSuT"></path><path d="M364.52 517.15C364.57 517.26 364.62 517.38 364.66 517.5C365.97 520.94 368.92 528.43 368.92 528.43C368.92 528.43 375.44 535 371.49 541.13C369 544.98 362.32 543.05 357.68 541.07C355.48 540.06 353.59 538.4 352.22 536.29C351.87 535.78 351.34 535.46 350.76 535.41C349.75 535.22 348.81 534.76 348.01 534.07C347.05 533.3 346.51 532.07 346.57 530.78C346.61 529.84 346.92 522.3 346.96 521.36C346.96 521.36 347.43 514.81 348.9 515.22C350.37 515.64 357.9 517.5 360.39 515.56C361.93 514.76 363.79 515.47 364.52 517.15Z" id="h5kwq5uX08"></path><path d="M315.76 348.95L315.41 349.35C315.14 349.18 314.99 349.08 314.96 349.06C312.34 347.38 299.23 338.81 300.36 336.23C300.98 334.76 301.34 331.71 301.54 329.08C301.54 328.76 301.57 328.45 301.6 328.15C301.72 326.07 301.75 324.46 301.75 324.46C301.75 324.46 325.34 320.08 324.41 324.46C324.03 326.23 324.6 328.22 325.4 329.96C325.64 330.46 325.9 330.94 326.15 331.39C326.78 332.51 327.5 333.57 328.29 334.55C326.62 336.47 322.44 341.27 315.76 348.95Z" id="alkBIxiFE"></path><path d="M301.6 328.15C301.72 326.07 301.75 324.46 301.75 324.46C301.75 324.46 325.34 320.08 324.41 324.46C324.05 326.24 324.6 328.22 325.4 329.96C318.13 335.77 308.05 335 301.6 328.15Z" id="aeNr49Sj4"></path><path d="M314.74 333.46C305.04 333.61 296.9 325.59 296.12 315.11C296.04 314.17 296.05 313.4 296.04 313.21C295.85 302.19 303.95 293.09 314.12 292.88C324.29 292.68 332.69 301.45 332.88 312.48C332.88 312.72 332.88 312.97 332.88 313.21C333.04 324.24 324.91 333.3 314.74 333.46Z" id="b4QYcTwDcW"></path><path d="M329.2 311.04C326.36 310.36 325.38 305.65 322.48 305.33C319.57 305.01 317.64 309.37 314.7 309.28C313.46 309.25 312.34 308.37 311.2 307.75C309.2 306.68 305.91 306.03 303.75 306.84C300.5 308.04 299.4 311.3 297.33 313.89C296.97 314.33 296.58 314.74 296.17 315.11C296.09 314.17 296.1 313.4 296.09 313.21C296 302.19 304.17 293.17 314.34 293.07C323.51 292.98 331.34 300.2 332.72 310.02C331.7 310.88 330.44 311.25 329.2 311.04Z" id="e1keNCgISP"></path><path d="M314.7 308.62C317.63 308.7 319.55 304.32 322.47 304.66C325.39 305 326.35 309.67 329.21 310.36C331.13 310.84 332.93 309.28 334.37 307.83C335.29 307.03 336.05 306.03 336.58 304.88C337.2 303.21 336.88 301.29 336.3 299.59C335.73 297.9 334.91 296.27 334.63 294.48C334.28 292.34 334.68 290 333.75 288.08C332.96 286.61 331.61 285.59 330.06 285.32C328.52 285.06 326.95 285.25 325.51 285.88C324.8 286.25 324.04 286.48 323.27 286.55C322.7 286.51 322.14 286.36 321.62 286.11C319.82 285.35 318.12 284.35 316.54 283.15C315.41 282.17 314.2 281.3 312.92 280.56C311.62 279.82 310.09 279.76 308.74 280.38C306.5 281.62 306.07 285.09 303.99 286.59C302.56 287.64 300.69 287.53 298.97 287.61C297.24 287.68 295.24 288.13 294.42 289.77C293.69 291.17 294.05 292.9 294.15 294.51C294.24 296.2 294.01 297.9 293.46 299.49C292.5 302.28 290.54 305.02 291.24 307.9C291.69 309.79 293.25 311.36 293.16 313.29C293.09 313.78 293.05 314.28 293.04 314.79C293.05 315.31 293.38 315.76 293.86 315.86C294.1 315.86 294.35 315.77 294.55 315.62C295.58 314.99 296.51 314.18 297.29 313.22C299.39 310.62 300.47 307.37 303.72 306.17C305.91 305.38 309.2 306.01 311.2 307.09C312.34 307.69 313.43 308.58 314.7 308.62Z" id="diOzVkPrj"></path><path d="M332.56 424.55L329.21 425.54C324.56 426.92 321.98 427.69 321.46 427.85C319.67 429.29 317.66 430.38 315.51 431.06C310.77 432.36 307.71 429.53 305.17 425.16C304.14 423.41 304.66 422.01 306 420.91C309.23 418.27 317.21 417.4 319.66 417.75C321.26 417.9 322.88 417.62 324.37 416.96C325.43 416.54 326.45 416.02 327.42 415.4C328.1 416.62 329.82 419.67 332.56 424.55Z" id="b1CfRLRmQA"></path><path d="M332.56 424.55C330.55 425.14 329.43 425.47 329.21 425.54C328.24 422.4 326.66 418.45 324.4 416.94C325.45 416.52 326.47 416 327.44 415.38C328.13 416.6 329.83 419.66 332.56 424.55Z" id="bi0TUATe5"></path><path d="M352.66 418.23C352.66 418.23 336.52 423.71 333.42 430.61C333.42 430.61 330.93 417.15 325.66 416.98C325.66 416.98 331.34 414.56 332.98 412.5C334.57 412.41 347.3 411.69 348.89 411.6C348.89 411.6 351.99 413.43 355.23 415.9C353.84 417.11 353.18 417.76 352.66 418.23Z" id="ddOti0dNg"></path><path d="M354.99 363.15L358.56 368.87C359.21 379.57 359.57 385.51 359.65 386.7C359.65 386.7 359.96 403.86 359.65 404.53C359.68 404.46 359.93 403.93 359.96 403.86C359.96 403.86 359.34 410.59 357.47 411.77C357.47 411.77 351.42 416.88 351.42 416.88C351.42 416.88 335.28 422.36 332.17 429.26C332.17 429.26 329.69 415.8 324.41 415.63C324.41 415.63 332.33 412.27 332.17 410.08C332.17 410.08 338.23 404.2 338.69 402.68C339.16 401.17 342.18 401 342.18 401C342.18 401 342.88 390.57 341.49 388.89C340.09 387.2 339.31 384.01 339.31 384.01C341.4 381.23 346.63 374.27 354.99 363.15Z" id="cYbB8zQhW"></path><path d="M305.17 425.14C304.14 423.39 304.66 421.99 306 420.89C306.05 420.91 306.44 421.08 306.48 421.1C306.48 421.1 315.02 425.11 315.51 431.04C310.77 432.34 307.71 429.51 305.17 425.14Z" id="a2DlvZQXMB"></path><path d="M296.79 430.78C296.51 429.92 295.44 429.16 294.22 428.55C292.67 427.81 291.06 427.23 289.41 426.82C290.03 426.27 293.11 423.56 298.65 418.66L300.42 419.43C303.68 420.85 305.5 421.63 305.86 421.79C305.86 421.79 319.14 428 313.55 436.41C307.96 444.83 297.56 433.13 296.79 430.78Z" id="coQkrQF19"></path><path d="M300.42 419.43C295.33 422.05 294.24 425.83 294.21 428.55C292.66 427.81 291.05 427.23 289.4 426.82C290.01 426.27 293.09 423.56 298.64 418.66C299.59 419.07 300.18 419.33 300.42 419.43Z" id="i1zYD4KyBm"></path><path d="M270.24 415.63C269.35 414.94 268.52 414.17 267.76 413.31C269.87 411.87 271.45 410.92 271.45 410.92C273.29 411 287.98 411.65 289.81 411.73C290.3 412.65 290.6 413.28 290.6 413.28C291.59 413.99 299.54 419.64 300.53 420.34C288.56 424.55 292.28 433.97 292.28 433.97C287.88 430.3 277.38 421.19 270.24 415.63Z" id="db065hRRxl"></path><path d="M272.42 366.85C270.65 367.96 269.67 368.58 269.47 368.7C269.47 368.7 265.9 380.98 266.83 389.05C266.83 389.05 264.04 400.66 265.12 402.51C265.12 402.51 263.73 408.74 270.87 414.29C278.01 419.84 292.91 432.63 292.91 432.63C292.91 432.63 289.18 423.2 301.13 419C300.14 418.29 292.19 412.64 291.2 411.93C291.2 411.93 287.86 404.76 284.68 403.19C284.68 403.19 282.2 400.49 283.75 398.64C285.3 396.79 286.54 394.77 286.54 392.92C286.54 391.07 287.16 382.33 287.16 382.33C287.29 381.7 287.91 378.56 289.03 372.9L272.42 366.85Z" id="gDzTGlsa7"></path><path d="M317.58 358.85C313.95 358.85 311.93 358.85 311.53 358.85C311.49 358.82 311.46 358.78 311.43 358.73C311.44 358.7 311.47 358.51 311.53 358.18L312.31 356L317.51 358.18L317.58 358.85Z" id="b2NU85hkrf"></path><path d="M311.53 347.46C311.53 347.46 309.05 355.5 311.53 358.19C312.28 358.19 318.24 358.19 318.98 358.19C318.98 358.19 322.89 350.87 319.54 347.46C317.94 347.46 314.29 352.21 311.53 347.46Z" id="c1U27Gj6Xs"></path><path d="M326.64 331.86C331.34 333.17 333.94 333.9 334.47 334.04C334.47 334.04 327.05 354.9 325.42 354.9C324.79 354.58 321.66 352.95 316.03 350.03L326.64 331.86Z" id="gBElnaaLw"></path><path d="M315.76 348.95L315.41 349.35L314.96 349.06L325.92 330.95C326.08 331.24 326.17 331.39 326.18 331.43C326.8 332.53 327.51 333.58 328.29 334.55C326.62 336.47 322.44 341.27 315.76 348.95Z" id="ccEIsJYEy"></path><path d="M326.02 331.18C330.72 332.5 333.32 333.23 333.84 333.37C333.84 333.37 326.43 354.23 324.8 354.23C324.17 353.91 321.04 352.28 315.41 349.35L326.02 331.18Z" id="g12o4kOpO7"></path><path d="M300.93 329.54C296.86 330.93 294.6 331.7 294.15 331.86C294.15 331.86 300.82 353.73 302.68 354.9C303.49 354.58 307.53 352.95 314.79 350.03L300.93 329.54Z" id="d5GmExv1t"></path><path d="M315.76 348.95C315.55 349.19 315.43 349.33 315.41 349.35C315.41 349.35 299.11 339.09 300.36 336.23C300.98 334.76 301.34 331.71 301.54 329.08C301.54 329.05 301.54 328.91 301.54 328.67L315.76 348.95Z" id="b1hPgN9yRS"></path><path d="M301.55 328.87C297.48 330.26 295.22 331.03 294.77 331.18C294.77 331.18 301.44 353.05 303.3 354.23C304.11 353.91 308.15 352.28 315.41 349.35L301.55 328.87Z" id="j1NwzxJaSq"></path><path d="M285.4 364.59C285.4 364.59 289.48 365.38 289.41 369.98C289.41 369.98 291.09 364.04 291.09 364.04C289.95 364.15 286.54 364.48 285.4 364.59Z" id="b141NEizBw"></path><path d="M286.33 391.96C286.33 391.96 287.37 400.37 288.25 400.71C289.13 401.05 286.33 378.73 286.33 378.73C286.33 381.37 285.19 385.68 286.33 391.96Z" id="b1uNMfVUE8"></path><path d="M336.54 380.78C336.55 380.92 336.58 381.06 336.62 381.2C337.14 384.01 338.48 378.05 338.48 378.05C337.25 378.22 336.38 379.44 336.54 380.78Z" id="aiHdQCgsD"></path><path d="M283.02 402.95C285.24 405.53 267.5 401.6 267.5 401.6C270.6 401.87 280.81 400.37 283.02 402.95Z" id="aFSyDv6rL"></path><path d="M344.69 402.58C344.69 402.58 354.42 401.28 356.7 403.08" id="f1XiMKeljG"></path><path d="M348.63 404.3C348.63 404.3 354.42 404.52 355.77 405.31" id="bAzMDhBdq"></path><path d="M349.76 406.55C349.76 406.55 355.04 406.33 355.77 407.22" id="a9G4d0ltY"></path><path d="M279.4 443.33C278.94 445.94 275.34 438.18 275.34 438.18C276.15 439.21 279.86 440.73 279.4 443.33Z" id="a53mJgrL0Y"></path><path d="M277.39 452.31C276.45 455.5 271.43 439.42 271.43 439.42C272.62 441.99 278.33 449.11 277.39 452.31Z" id="b6bfG0EasE"></path><path d="M345.37 441.02C345.37 441.02 341.95 444.07 342.05 446.59" id="diZmTXdu"></path><path d="M266.52 501.09C266.52 501.09 266.52 503.95 271.41 508.16" id="jvOPU7buW"></path><path d="M352.76 494.36C352.76 494.36 352.24 500.31 347.48 503.4" id="b1p4qgdWAW"></path><path d="M294.04 291.05C293.96 292.08 293.99 293.11 294.12 294.13C294.16 293.58 294.17 293.02 294.15 292.47C294.15 292 294.07 291.52 294.04 291.05Z" id="a3u5LltbUp"></path><path d="M291.24 305.88C291.21 305.79 291.2 305.7 291.19 305.61C291.04 306.37 291.06 307.15 291.24 307.9C291.6 309.44 292.71 310.76 293.05 312.26C293.09 311.91 293.15 311.59 293.16 311.27C293.25 309.32 291.69 307.75 291.24 305.88Z" id="a1uqwDZXWC"></path><path d="M334.37 305.82C332.92 307.26 331.13 308.82 329.21 308.35C326.36 307.67 325.38 302.96 322.47 302.64C319.56 302.32 317.63 306.68 314.7 306.59C313.46 306.56 312.34 305.67 311.2 305.06C309.2 303.99 305.91 303.34 303.75 304.15C300.5 305.35 299.4 308.61 297.31 311.2C296.54 312.16 295.61 312.98 294.58 313.61C294.37 313.76 294.13 313.84 293.88 313.84C293.56 313.8 293.3 313.56 293.18 313.24C293.18 313.24 293.18 313.28 293.18 313.29C293.11 313.78 293.07 314.29 293.07 314.79C293.07 315.31 293.41 315.76 293.88 315.86C294.13 315.86 294.37 315.78 294.58 315.63C295.61 315 296.54 314.18 297.31 313.22C299.41 310.63 300.5 307.37 303.75 306.17C305.94 305.36 309.22 306.01 311.2 307.08C312.34 307.69 313.43 308.57 314.7 308.61C317.63 308.69 319.55 304.31 322.47 304.66C325.39 305.01 326.36 309.66 329.21 310.36C331.13 310.84 332.93 309.28 334.37 307.83C335.29 307.03 336.05 306.03 336.58 304.88C336.93 303.91 337.02 302.85 336.85 301.83C336.8 302.18 336.71 302.53 336.58 302.86C336.05 304.01 335.29 305.01 334.37 305.82Z" id="alNPl39or"></path><path d="M251.41 527.76C251.41 527.76 256.49 526.07 258.59 529.28" id="amy4JJ6hw"></path><path d="M368.92 528.43C368.92 528.43 360.52 527.9 360.85 530.37" id="d2cRKlzqwg"></path><path d="M553.35 520.39C553.35 522.08 545.87 523.45 536.63 523.45C527.4 523.45 519.91 522.08 519.91 520.39C519.91 518.7 527.4 517.32 536.63 517.32C545.87 517.32 553.35 518.7 553.35 520.39Z" id="c16nPk4HNF"></path><path d="M73.39 545.51C73.39 547.2 65.9 548.57 56.67 548.57C47.43 548.57 39.95 547.2 39.95 545.51C39.95 543.82 47.43 542.45 56.67 542.45C65.9 542.45 73.39 543.82 73.39 545.51Z" id="aeUlY4o78"></path><path d="M138.06 561.94C138.06 563.63 130.57 565 121.34 565C112.11 565 104.62 563.63 104.62 561.94C104.62 560.25 112.11 558.88 121.34 558.88C130.57 558.88 138.06 560.25 138.06 561.94Z" id="ag2YctS7I"></path><path d="M525 553.2C525 555.72 513.82 557.77 500.03 557.77C486.25 557.77 475.07 555.72 475.07 553.2C475.07 550.67 486.25 548.62 500.03 548.62C513.82 548.62 525 550.67 525 553.2Z" id="i2yvlIsmK3"></path><path d="M512.74 541.82C513.05 540.28 512.44 538.45 511.07 537.85C509.54 537.22 507.91 538.37 506.68 539.53C505.44 540.69 504.02 542.01 502.4 541.76C504.1 540.1 504.86 537.6 504.42 535.16C504.34 534.67 504.15 534.2 503.85 533.82C503.01 532.83 501.47 533.25 500.46 534.03C497.23 536.49 496.33 541.25 496.31 545.52C495.98 543.98 496.26 542.37 496.25 540.81C496.23 539.25 495.84 537.44 494.61 536.62C493.84 536.17 492.99 535.96 492.12 535.98C490.67 535.92 489.06 536.09 488.06 537.24C486.82 538.66 487.16 541.06 488.22 542.62C489.29 544.18 490.93 545.18 492.43 546.27C493.63 547.04 494.65 548.1 495.43 549.37C495.52 549.55 495.59 549.73 495.65 549.93C496.56 549.93 503.81 549.93 504.72 549.93C506.77 548.8 508.66 547.39 510.36 545.71C511.5 544.71 512.32 543.35 512.74 541.82Z" id="b3Nk6y6op6"></path><path d="M120.63 498.81C120.63 498.81 111.54 512.26 113.18 516.82C113.18 516.82 120.71 503.26 126.84 503.07C132.97 502.88 128.94 494.85 122.2 486.69C121.89 489.12 125.62 491.53 120.63 498.81Z" id="bbXQ7KqG5"></path><path d="M122.9 488.21C128.87 495.82 132.06 502.92 126.31 503.09C120.97 503.26 114.55 513.62 113.01 516.24C113.06 516.44 113.13 516.64 113.19 516.84C113.19 516.84 120.72 503.28 126.85 503.09C132.99 502.9 128.94 494.85 122.2 486.69C122.5 487.16 122.74 487.67 122.9 488.21Z" id="d2TcKlnc"></path><path d="M128.15 495.94C127.93 495.94 127.76 494.56 127.76 492.86C127.76 491.16 127.98 491.96 128.19 491.96C128.41 491.96 128.54 491.16 128.54 492.86C128.54 494.56 128.37 495.94 128.15 495.94Z" id="b2ShVYu4OQ"></path><path d="M128.04 495.99C127.94 495.78 128.96 494.95 130.34 494.14C131.72 493.32 131.18 493.91 131.28 494.14C131.38 494.36 132.1 494.08 130.72 494.89C129.34 495.7 128.14 496.2 128.04 495.99Z" id="bJpwfDgHF"></path><path d="M105.76 498.81C105.76 498.81 114.86 512.26 113.21 516.82C113.21 516.82 105.69 503.26 99.55 503.07C93.41 502.88 97.44 494.85 104.19 486.69C104.51 489.12 100.78 491.53 105.76 498.81Z" id="aR0pNgMN"></path><path d="M103.49 488.21C97.52 495.82 94.34 502.92 100.08 503.09C105.43 503.26 111.84 513.62 113.38 516.24C113.33 516.44 113.27 516.64 113.19 516.84C113.19 516.84 105.68 503.28 99.54 503.09C93.4 502.9 97.44 494.85 104.19 486.69C103.89 487.16 103.66 487.67 103.49 488.21Z" id="e3npAHGsjv"></path><path d="M98.24 495.94C98.46 495.94 98.64 494.56 98.64 492.86C98.64 491.16 98.42 491.96 98.2 491.96C97.98 491.96 97.85 491.16 97.85 492.86C97.85 494.56 98.03 495.94 98.24 495.94Z" id="bfFREctRi"></path><path d="M98.36 495.99C98.46 495.78 97.43 494.95 96.05 494.14C94.67 493.32 95.21 493.91 95.11 494.14C95 494.36 94.3 494.08 95.67 494.89C97.05 495.7 98.25 496.2 98.36 495.99Z" id="a9Xvy4Q3"></path><path d="M111.35 513.67C111.35 513.67 126.02 508.8 126.73 512.36C126.73 512.36 141.06 530.05 130.3 530.14C130.3 530.14 105.28 528.33 102.41 526.44C99.54 524.54 98.93 516.21 98.93 516.21C101.42 515.7 108.47 515.88 111.35 513.67Z" id="aPAS1TILN"></path><path d="M102.6 525.2C100.42 523.75 99.54 518.58 99.25 516.19C99.22 516.19 98.97 516.19 98.93 516.19C98.93 516.19 99.55 524.52 102.4 526.42C102.4 526.42 119.53 530.22 130.29 530.13C133.4 530.13 134.47 528.91 134.42 527.13C133.98 528.22 132.79 528.89 130.49 528.91C119.72 529 105.47 527.09 102.6 525.2Z" id="jwWI23Cih"></path></defs><g><g><g><use xlink:href="#bo4texEny" opacity="1" fill="#b3b3b3" fill-opacity="1"></use><g><use xlink:href="#bo4texEny" opacity="1" fill-opacity="0" stroke="#000000" stroke-width="1" stroke-opacity="0"></use></g></g><g><use xlink:href="#b4Ay4wWBKJ" opacity="1" fill="#818181" fill-opacity="1"></use><g><use xlink:href="#b4Ay4wWBKJ" opacity="1" fill-opacity="0" stroke="#000000" stroke-width="1" stroke-opacity="0"></use></g></g><g><use xlink:href="#beuZz8AbF" opacity="1" fill="#38d39f" fill-opacity="1"></use><g><use xlink:href="#beuZz8AbF" opacity="1" fill-opacity="0" stroke="#000000" stroke-width="1" stroke-opacity="0"></use></g></g><g><use xlink:href="#e30NzZadqh" opacity="1" fill="#38d39f" fill-opacity="1"></use><g><use xlink:href="#e30NzZadqh" opacity="1" fill-opacity="0" stroke="#000000" stroke-width="1" stroke-opacity="0"></use></g></g><g><use xlink:href="#aVpfsXU4K" opacity="1" fill="#444053" fill-opacity="1"></use><g><use xlink:href="#aVpfsXU4K" opacity="1" fill-opacity="0" stroke="#000000" stroke-width="1" stroke-opacity="0"></use></g></g><g><use xlink:href="#d1M6QVexzO" opacity="1" fill="#444053" fill-opacity="1"></use><g><use xlink:href="#d1M6QVexzO" opacity="1" fill-opacity="0" stroke="#000000" stroke-width="1" stroke-opacity="0"></use></g></g><g><use xlink:href="#a5q0si9M48" opacity="1" fill="#444053" fill-opacity="1"></use><g><use xlink:href="#a5q0si9M48" opacity="1" fill-opacity="0" stroke="#000000" stroke-width="1" stroke-opacity="0"></use></g></g><g><use xlink:href="#ar50Nv8W" opacity="1" fill="#3a3768" fill-opacity="1"></use><g><use xlink:href="#ar50Nv8W" opacity="1" fill-opacity="0" stroke="#000000" stroke-width="1" stroke-opacity="0"></use></g></g><g><use xlink:href="#nlMDrL6wX" opacity="1" fill="#3a3768" fill-opacity="1"></use><g><use xlink:href="#nlMDrL6wX" opacity="1" fill-opacity="0" stroke="#000000" stroke-width="1" stroke-opacity="0"></use></g></g><g><use xlink:href="#e9LC4I1QT" opacity="1" fill="#3a3768" fill-opacity="1"></use><g><use xlink:href="#e9LC4I1QT" opacity="1" fill-opacity="0" stroke="#000000" stroke-width="1" stroke-opacity="0"></use></g></g><g><use xlink:href="#e2Hy36nrqq" opacity="1" fill="#3a3768" fill-opacity="1"></use><g><use xlink:href="#e2Hy36nrqq" opacity="1" fill-opacity="0" stroke="#000000" stroke-width="1" stroke-opacity="0"></use></g></g><g><use xlink:href="#aCRRpThJN" opacity="1" fill="#3a3768" fill-opacity="1"></use><g><use xlink:href="#aCRRpThJN" opacity="1" fill-opacity="0" stroke="#000000" stroke-width="1" stroke-opacity="0"></use></g></g><g><use xlink:href="#aJoW8a0KB" opacity="1" fill="#ffffff" fill-opacity="1"></use><g><use xlink:href="#aJoW8a0KB" opacity="1" fill-opacity="0" stroke="#000000" stroke-width="1" stroke-opacity="0"></use></g></g><g><use xlink:href="#aTumZI2Tr" opacity="1" fill="#e6e8ec" fill-opacity="1"></use><g><use xlink:href="#aTumZI2Tr" opacity="1" fill-opacity="0" stroke="#000000" stroke-width="1" stroke-opacity="0"></use></g></g><g><use xlink:href="#hQ8QT8X8S" opacity="1" fill="#e6e8ec" fill-opacity="1"></use><g><use xlink:href="#hQ8QT8X8S" opacity="1" fill-opacity="0" stroke="#000000" stroke-width="1" stroke-opacity="0"></use></g></g><g><use xlink:href="#d2QdOypBI" opacity="1" fill="#000000" fill-opacity="1"></use><g><use xlink:href="#d2QdOypBI" opacity="1" fill-opacity="0" stroke="#000000" stroke-width="1" stroke-opacity="0"></use></g></g><g><use xlink:href="#a14A5CxdPA" opacity="1" fill="url(#gradientcUHQQMTRL)"></use><g><use xlink:href="#a14A5CxdPA" opacity="1" fill-opacity="0" stroke="#000000" stroke-width="1" stroke-opacity="0"></use></g></g><g><use xlink:href="#bgeMHSEk4" opacity="1" fill="#8e6f7f" fill-opacity="1"></use><g><use xlink:href="#bgeMHSEk4" opacity="1" fill-opacity="0" stroke="#000000" stroke-width="1" stroke-opacity="0"></use></g></g><g><use xlink:href="#dav1LrXFW" opacity="1" fill="#8e6f7f" fill-opacity="1"></use><g><use xlink:href="#dav1LrXFW" opacity="1" fill-opacity="0" stroke="#000000" stroke-width="1" stroke-opacity="0"></use></g></g><g><use xlink:href="#af1rpgZft" opacity="1" fill="#5f5570" fill-opacity="1"></use><g><use xlink:href="#af1rpgZft" opacity="1" fill-opacity="0" stroke="#000000" stroke-width="1" stroke-opacity="0"></use></g></g><g><use xlink:href="#b1M25pYEcq" opacity="1" fill="#000000" fill-opacity="1"></use><g><use xlink:href="#b1M25pYEcq" opacity="1" fill-opacity="0" stroke="#000000" stroke-width="1" stroke-opacity="0"></use></g></g><g><use xlink:href="#ad7blKO1Z" opacity="1" fill="#eaeaf2" fill-opacity="1"></use><g><use xlink:href="#ad7blKO1Z" opacity="1" fill-opacity="0" stroke="#000000" stroke-width="1" stroke-opacity="0"></use></g></g><g><use xlink:href="#b6027vLics" opacity="1" fill="#000000" fill-opacity="1"></use><g><use xlink:href="#b6027vLics" opacity="1" fill-opacity="0" stroke="#000000" stroke-width="1" stroke-opacity="0"></use></g></g><g><use xlink:href="#b18mzLkdFC" opacity="1" fill="#000000" fill-opacity="1"></use><g><use xlink:href="#b18mzLkdFC" opacity="1" fill-opacity="0" stroke="#000000" stroke-width="1" stroke-opacity="0"></use></g></g><g><use xlink:href="#baa1pHVGl" opacity="1" fill="#bc8487" fill-opacity="1"></use><g><use xlink:href="#baa1pHVGl" opacity="1" fill-opacity="0" stroke="#000000" stroke-width="1" stroke-opacity="0"></use></g></g><g><use xlink:href="#b3RSaptWuB" opacity="1" fill="#000000" fill-opacity="1"></use><g><use xlink:href="#b3RSaptWuB" opacity="1" fill-opacity="0" stroke="#000000" stroke-width="1" stroke-opacity="0"></use></g></g><g><use xlink:href="#h2qHS6fWaB" opacity="1" fill="#5f5570" fill-opacity="1"></use><g><use xlink:href="#h2qHS6fWaB" opacity="1" fill-opacity="0" stroke="#000000" stroke-width="1" stroke-opacity="0"></use></g></g><g><use xlink:href="#f1qGZITTn6" opacity="1" fill="#000000" fill-opacity="1"></use><g><use xlink:href="#f1qGZITTn6" opacity="1" fill-opacity="0" stroke="#000000" stroke-width="1" stroke-opacity="0"></use></g></g><g><use xlink:href="#f1Aw8jyvk6" opacity="1" fill="#bc8487" fill-opacity="1"></use><g><use xlink:href="#f1Aw8jyvk6" opacity="1" fill-opacity="0" stroke="#000000" stroke-width="1" stroke-opacity="0"></use></g></g><g><use xlink:href="#d2Fb3RgdOD" opacity="1" fill="#000000" fill-opacity="1"></use><g><use xlink:href="#d2Fb3RgdOD" opacity="1" fill-opacity="0" stroke="#000000" stroke-width="1" stroke-opacity="0"></use></g></g><g><use xlink:href="#ejZIdAjdO" opacity="1" fill="#5f5570" fill-opacity="1"></use><g><use xlink:href="#ejZIdAjdO" opacity="1" fill-opacity="0" stroke="#000000" stroke-width="1" stroke-opacity="0"></use></g></g><g><use xlink:href="#e2GvFGzSuT" opacity="1" fill="#000000" fill-opacity="1"></use><g><use xlink:href="#e2GvFGzSuT" opacity="1" fill-opacity="0" stroke="#000000" stroke-width="1" stroke-opacity="0"></use></g></g><g><use xlink:href="#h5kwq5uX08" opacity="1" fill="#bc8487" fill-opacity="1"></use><g><use xlink:href="#h5kwq5uX08" opacity="1" fill-opacity="0" stroke="#000000" stroke-width="1" stroke-opacity="0"></use></g></g><g><use xlink:href="#alkBIxiFE" opacity="1" fill="#ffc4d0" fill-opacity="1"></use><g><use xlink:href="#alkBIxiFE" opacity="1" fill-opacity="0" stroke="#000000" stroke-width="1" stroke-opacity="0"></use></g></g><g><use xlink:href="#aeNr49Sj4" opacity="1" fill="#000000" fill-opacity="1"></use><g><use xlink:href="#aeNr49Sj4" opacity="1" fill-opacity="0" stroke="#000000" stroke-width="1" stroke-opacity="0"></use></g></g><g><use xlink:href="#b4QYcTwDcW" opacity="1" fill="#ffc4d0" fill-opacity="1"></use><g><use xlink:href="#b4QYcTwDcW" opacity="1" fill-opacity="0" stroke="#000000" stroke-width="1" stroke-opacity="0"></use></g></g><g><use xlink:href="#e1keNCgISP" opacity="1" fill="#000000" fill-opacity="1"></use><g><use xlink:href="#e1keNCgISP" opacity="1" fill-opacity="0" stroke="#000000" stroke-width="1" stroke-opacity="0"></use></g></g><g><use xlink:href="#diOzVkPrj" opacity="1" fill="#8e6f7f" fill-opacity="1"></use><g><use xlink:href="#diOzVkPrj" opacity="1" fill-opacity="0" stroke="#000000" stroke-width="1" stroke-opacity="0"></use></g></g><g><use xlink:href="#b1CfRLRmQA" opacity="1" fill="#ffc4d0" fill-opacity="1"></use><g><use xlink:href="#b1CfRLRmQA" opacity="1" fill-opacity="0" stroke="#000000" stroke-width="1" stroke-opacity="0"></use></g></g><g><use xlink:href="#bi0TUATe5" opacity="1" fill="#000000" fill-opacity="1"></use><g><use xlink:href="#bi0TUATe5" opacity="1" fill-opacity="0" stroke="#000000" stroke-width="1" stroke-opacity="0"></use></g></g><g><use xlink:href="#ddOti0dNg" opacity="1" fill="#000000" fill-opacity="1"></use><g><use xlink:href="#ddOti0dNg" opacity="1" fill-opacity="0" stroke="#000000" stroke-width="1" stroke-opacity="0"></use></g></g><g><use xlink:href="#cYbB8zQhW" opacity="1" fill="#eaeaf2" fill-opacity="1"></use><g><use xlink:href="#cYbB8zQhW" opacity="1" fill-opacity="0" stroke="#000000" stroke-width="1" stroke-opacity="0"></use></g></g><g><use xlink:href="#a2DlvZQXMB" opacity="1" fill="#000000" fill-opacity="1"></use><g><use xlink:href="#a2DlvZQXMB" opacity="1" fill-opacity="0" stroke="#000000" stroke-width="1" stroke-opacity="0"></use></g></g><g><use xlink:href="#coQkrQF19" opacity="1" fill="#ffc4d0" fill-opacity="1"></use><g><use xlink:href="#coQkrQF19" opacity="1" fill-opacity="0" stroke="#000000" stroke-width="1" stroke-opacity="0"></use></g></g><g><use xlink:href="#i1zYD4KyBm" opacity="1" fill="#000000" fill-opacity="1"></use><g><use xlink:href="#i1zYD4KyBm" opacity="1" fill-opacity="0" stroke="#000000" stroke-width="1" stroke-opacity="0"></use></g></g><g><use xlink:href="#db065hRRxl" opacity="1" fill="#000000" fill-opacity="1"></use><g><use xlink:href="#db065hRRxl" opacity="1" fill-opacity="0" stroke="#000000" stroke-width="1" stroke-opacity="0"></use></g></g><g><use xlink:href="#gDzTGlsa7" opacity="1" fill="#eaeaf2" fill-opacity="1"></use><g><use xlink:href="#gDzTGlsa7" opacity="1" fill-opacity="0" stroke="#000000" stroke-width="1" stroke-opacity="0"></use></g></g><g><use xlink:href="#b2NU85hkrf" opacity="1" fill="#000000" fill-opacity="1"></use><g><use xlink:href="#b2NU85hkrf" opacity="1" fill-opacity="0" stroke="#000000" stroke-width="1" stroke-opacity="0"></use></g></g><g><use xlink:href="#c1U27Gj6Xs" opacity="1" fill="#bc8487" fill-opacity="1"></use><g><use xlink:href="#c1U27Gj6Xs" opacity="1" fill-opacity="0" stroke="#000000" stroke-width="1" stroke-opacity="0"></use></g></g><g><use xlink:href="#gBElnaaLw" opacity="1" fill="#000000" fill-opacity="1"></use><g><use xlink:href="#gBElnaaLw" opacity="1" fill-opacity="0" stroke="#000000" stroke-width="1" stroke-opacity="0"></use></g></g><g><use xlink:href="#ccEIsJYEy" opacity="1" fill="#000000" fill-opacity="1"></use><g><use xlink:href="#ccEIsJYEy" opacity="1" fill-opacity="0" stroke="#000000" stroke-width="1" stroke-opacity="0"></use></g></g><g><use xlink:href="#g12o4kOpO7" opacity="1" fill="#eaeaf2" fill-opacity="1"></use><g><use xlink:href="#g12o4kOpO7" opacity="1" fill-opacity="0" stroke="#000000" stroke-width="1" stroke-opacity="0"></use></g></g><g><use xlink:href="#d5GmExv1t" opacity="1" fill="#000000" fill-opacity="1"></use><g><use xlink:href="#d5GmExv1t" opacity="1" fill-opacity="0" stroke="#000000" stroke-width="1" stroke-opacity="0"></use></g></g><g><use xlink:href="#b1hPgN9yRS" opacity="1" fill="#000000" fill-opacity="1"></use><g><use xlink:href="#b1hPgN9yRS" opacity="1" fill-opacity="0" stroke="#000000" stroke-width="1" stroke-opacity="0"></use></g></g><g><use xlink:href="#j1NwzxJaSq" opacity="1" fill="#eaeaf2" fill-opacity="1"></use><g><use xlink:href="#j1NwzxJaSq" opacity="1" fill-opacity="0" stroke="#000000" stroke-width="1" stroke-opacity="0"></use></g></g><g><use xlink:href="#b141NEizBw" opacity="1" fill="#000000" fill-opacity="1"></use><g><use xlink:href="#b141NEizBw" opacity="1" fill-opacity="0" stroke="#000000" stroke-width="1" stroke-opacity="0"></use></g></g><g><use xlink:href="#b1uNMfVUE8" opacity="1" fill="#000000" fill-opacity="1"></use><g><use xlink:href="#b1uNMfVUE8" opacity="1" fill-opacity="0" stroke="#000000" stroke-width="1" stroke-opacity="0"></use></g></g><g><use xlink:href="#aiHdQCgsD" opacity="1" fill="#000000" fill-opacity="1"></use><g><use xlink:href="#aiHdQCgsD" opacity="1" fill-opacity="0" stroke="#000000" stroke-width="1" stroke-opacity="0"></use></g></g><g><use xlink:href="#aFSyDv6rL" opacity="1" fill="#000000" fill-opacity="1"></use><g><use xlink:href="#aFSyDv6rL" opacity="1" fill-opacity="0" stroke="#000000" stroke-width="1" stroke-opacity="0"></use></g></g><g><use xlink:href="#f1XiMKeljG" opacity="1" fill="#000000" fill-opacity="1"></use><g><use xlink:href="#f1XiMKeljG" opacity="1" fill-opacity="0" stroke="#000000" stroke-width="1" stroke-opacity="0"></use></g></g><g><use xlink:href="#bAzMDhBdq" opacity="1" fill="#000000" fill-opacity="1"></use><g><use xlink:href="#bAzMDhBdq" opacity="1" fill-opacity="0" stroke="#000000" stroke-width="1" stroke-opacity="0"></use></g></g><g><use xlink:href="#a9G4d0ltY" opacity="1" fill="#000000" fill-opacity="1"></use><g><use xlink:href="#a9G4d0ltY" opacity="1" fill-opacity="0" stroke="#000000" stroke-width="1" stroke-opacity="0"></use></g></g><g><use xlink:href="#a53mJgrL0Y" opacity="1" fill="#000000" fill-opacity="1"></use><g><use xlink:href="#a53mJgrL0Y" opacity="1" fill-opacity="0" stroke="#000000" stroke-width="1" stroke-opacity="0"></use></g></g><g><use xlink:href="#b6bfG0EasE" opacity="1" fill="#000000" fill-opacity="1"></use><g><use xlink:href="#b6bfG0EasE" opacity="1" fill-opacity="0" stroke="#000000" stroke-width="1" stroke-opacity="0"></use></g></g><g><use xlink:href="#diZmTXdu" opacity="1" fill="#000000" fill-opacity="1"></use><g><use xlink:href="#diZmTXdu" opacity="1" fill-opacity="0" stroke="#000000" stroke-width="1" stroke-opacity="0"></use></g></g><g><use xlink:href="#jvOPU7buW" opacity="1" fill="#000000" fill-opacity="1"></use><g><use xlink:href="#jvOPU7buW" opacity="1" fill-opacity="0" stroke="#000000" stroke-width="1" stroke-opacity="0"></use></g></g><g><use xlink:href="#b1p4qgdWAW" opacity="1" fill="#000000" fill-opacity="1"></use><g><use xlink:href="#b1p4qgdWAW" opacity="1" fill-opacity="0" stroke="#000000" stroke-width="1" stroke-opacity="0"></use></g></g><g><use xlink:href="#a3u5LltbUp" opacity="1" fill="#000000" fill-opacity="1"></use><g><use xlink:href="#a3u5LltbUp" opacity="1" fill-opacity="0" stroke="#000000" stroke-width="1" stroke-opacity="0"></use></g></g><g><use xlink:href="#a1uqwDZXWC" opacity="1" fill="#000000" fill-opacity="1"></use><g><use xlink:href="#a1uqwDZXWC" opacity="1" fill-opacity="0" stroke="#000000" stroke-width="1" stroke-opacity="0"></use></g></g><g><use xlink:href="#alNPl39or" opacity="1" fill="#000000" fill-opacity="1"></use><g><use xlink:href="#alNPl39or" opacity="1" fill-opacity="0" stroke="#000000" stroke-width="1" stroke-opacity="0"></use></g></g><g><use xlink:href="#amy4JJ6hw" opacity="1" fill="#000000" fill-opacity="1"></use><g><use xlink:href="#amy4JJ6hw" opacity="1" fill-opacity="0" stroke="#000000" stroke-width="1" stroke-opacity="0"></use></g></g><g><use xlink:href="#d2cRKlzqwg" opacity="1" fill="#000000" fill-opacity="1"></use><g><use xlink:href="#d2cRKlzqwg" opacity="1" fill-opacity="0" stroke="#000000" stroke-width="1" stroke-opacity="0"></use></g></g><g><use xlink:href="#c16nPk4HNF" opacity="1" fill="#767878" fill-opacity="1"></use><g><use xlink:href="#c16nPk4HNF" opacity="1" fill-opacity="0" stroke="#000000" stroke-width="1" stroke-opacity="0"></use></g></g><g><use xlink:href="#aeUlY4o78" opacity="1" fill="#8a8a8a" fill-opacity="1"></use><g><use xlink:href="#aeUlY4o78" opacity="1" fill-opacity="0" stroke="#000000" stroke-width="1" stroke-opacity="0"></use></g></g><g><use xlink:href="#ag2YctS7I" opacity="1" fill="#727272" fill-opacity="1"></use><g><use xlink:href="#ag2YctS7I" opacity="1" fill-opacity="0" stroke="#000000" stroke-width="1" stroke-opacity="0"></use></g></g><g><use xlink:href="#i2yvlIsmK3" opacity="1" fill="#8a8a8a" fill-opacity="1"></use><g><use xlink:href="#i2yvlIsmK3" opacity="1" fill-opacity="0" stroke="#000000" stroke-width="1" stroke-opacity="0"></use></g></g><g><use xlink:href="#b3Nk6y6op6" opacity="1" fill="#38d39f" fill-opacity="1"></use><g><use xlink:href="#b3Nk6y6op6" opacity="1" fill-opacity="0" stroke="#000000" stroke-width="1" stroke-opacity="0"></use></g></g><g><use xlink:href="#bbXQ7KqG5" opacity="1" fill="#38d39f" fill-opacity="1"></use><g><use xlink:href="#bbXQ7KqG5" opacity="1" fill-opacity="0" stroke="#000000" stroke-width="1" stroke-opacity="0"></use></g></g><g><use xlink:href="#d2TcKlnc" opacity="1" fill="#000000" fill-opacity="1"></use><g><use xlink:href="#d2TcKlnc" opacity="1" fill-opacity="0" stroke="#000000" stroke-width="1" stroke-opacity="0"></use></g></g><g><use xlink:href="#b2ShVYu4OQ" opacity="1" fill="#ffd037" fill-opacity="1"></use><g><use xlink:href="#b2ShVYu4OQ" opacity="1" fill-opacity="0" stroke="#000000" stroke-width="1" stroke-opacity="0"></use></g></g><g><use xlink:href="#bJpwfDgHF" opacity="1" fill="#ffd037" fill-opacity="1"></use><g><use xlink:href="#bJpwfDgHF" opacity="1" fill-opacity="0" stroke="#000000" stroke-width="1" stroke-opacity="0"></use></g></g><g><use xlink:href="#aR0pNgMN" opacity="1" fill="#38d39f" fill-opacity="1"></use><g><use xlink:href="#aR0pNgMN" opacity="1" fill-opacity="0" stroke="#000000" stroke-width="1" stroke-opacity="0"></use></g></g><g><use xlink:href="#e3npAHGsjv" opacity="1" fill="#000000" fill-opacity="1"></use><g><use xlink:href="#e3npAHGsjv" opacity="1" fill-opacity="0" stroke="#000000" stroke-width="1" stroke-opacity="0"></use></g></g><g><use xlink:href="#bfFREctRi" opacity="1" fill="#ffd037" fill-opacity="1"></use><g><use xlink:href="#bfFREctRi" opacity="1" fill-opacity="0" stroke="#000000" stroke-width="1" stroke-opacity="0"></use></g></g><g><use xlink:href="#a9Xvy4Q3" opacity="1" fill="#ffd037" fill-opacity="1"></use><g><use xlink:href="#a9Xvy4Q3" opacity="1" fill-opacity="0" stroke="#000000" stroke-width="1" stroke-opacity="0"></use></g></g><g><use xlink:href="#aPAS1TILN" opacity="1" fill="#a8a8a8" fill-opacity="1"></use><g><use xlink:href="#aPAS1TILN" opacity="1" fill-opacity="0" stroke="#000000" stroke-width="1" stroke-opacity="0"></use></g></g><g><use xlink:href="#jwWI23Cih" opacity="1" fill="#000000" fill-opacity="1"></use><g><use xlink:href="#jwWI23Cih" opacity="1" fill-opacity="0" stroke="#000000" stroke-width="1" stroke-opacity="0"></use></g></g></g></g></svg>